<svg xmlns="http://www.w3.org/2000/svg" width="24" height="24" viewBox="0 0 24 24" fill="none">
  <path d="M8.28854 5.2904C8.19583 5.38292 8.12229 5.4928 8.0721 5.61378C8.02192 5.73475 7.99609 5.86443 7.99609 5.9954C7.99609 6.12637 8.02192 6.25605 8.0721 6.37703C8.12229 6.498 8.19583 6.60789 8.28854 6.7004L13.5785 11.9904L8.28854 17.2804C8.19596 17.373 8.12252 17.4829 8.07241 17.6039C8.02231 17.7248 7.99652 17.8545 7.99652 17.9854C7.99652 18.1163 8.02231 18.246 8.07241 18.3669C8.12252 18.4879 8.19596 18.5978 8.28854 18.6904C8.38112 18.783 8.49103 18.8564 8.61199 18.9065C8.73296 18.9566 8.86261 18.9824 8.99354 18.9824C9.12447 18.9824 9.25412 18.9566 9.37508 18.9065C9.49605 18.8564 9.60596 18.783 9.69854 18.6904L15.6985 12.6904C15.8985 12.4904 15.9885 12.2404 15.9885 11.9804C15.9885 11.7204 15.8885 11.4704 15.6985 11.2704L9.69854 5.2704C9.60602 5.1777 9.49613 5.10415 9.37516 5.05397C9.25419 5.00379 9.12451 4.97796 8.99354 4.97796C8.86257 4.97796 8.73289 5.00379 8.61191 5.05397C8.49094 5.10415 8.38105 5.1777 8.28854 5.2704L8.28854 5.2904Z" fill="black"/>
</svg>
