<svg xmlns="http://www.w3.org/2000/svg" width="24" height="25" viewBox="0 0 24 25" fill="none">
  <path d="M19.92 11.8095C19.87 11.6895 19.8 11.5795 19.7 11.4795L12.7 4.47952C12.6074 4.38694 12.4975 4.3135 12.3765 4.26339C12.2556 4.21329 12.1259 4.1875 11.995 4.1875C11.8641 4.1875 11.7344 4.21329 11.6135 4.26339C11.4925 4.3135 11.3826 4.38694 11.29 4.47952C11.1974 4.5721 11.124 4.68201 11.0739 4.80298C11.0238 4.92394 10.998 5.05359 10.998 5.18452C10.998 5.31545 11.0238 5.4451 11.0739 5.56606C11.124 5.68703 11.1974 5.79694 11.29 5.88952L16.58 11.1795H5C4.45 11.1795 4 11.6295 4 12.1795C4 12.7295 4.45 13.1795 5 13.1795H16.59L11.3 18.4695C11.2074 18.5621 11.134 18.672 11.0839 18.793C11.0338 18.9139 11.008 19.0436 11.008 19.1745C11.008 19.3055 11.0338 19.4351 11.0839 19.5561C11.134 19.677 11.2074 19.7869 11.3 19.8795C11.3926 19.9721 11.5025 20.0455 11.6235 20.0956C11.7444 20.1458 11.8741 20.1715 12.005 20.1715C12.1359 20.1715 12.2656 20.1458 12.3865 20.0956C12.5075 20.0455 12.6174 19.9721 12.71 19.8795L19.71 12.8795C19.8504 12.74 19.9463 12.562 19.9855 12.3679C20.0246 12.1739 20.0053 11.9726 19.93 11.7895L19.92 11.8095Z" fill="black"/>
</svg>
