<svg xmlns="http://www.w3.org/2000/svg" width="148" height="20" viewBox="0 0 148 20" fill="none">
  <g clip-path="url(#clip0_7910_21427)">
    <path d="M17.1417 10.0359C17.1417 9.48772 17.0922 8.95067 16.9932 8.43093C16.2519 4.40301 12.7611 1.34277 8.57474 1.34277C3.8526 1.34277 0.0078125 5.24324 0.0078125 10.0359C0.0078125 14.8286 3.8526 18.7253 8.57474 18.7253C11.2699 18.7253 13.8401 17.4161 15.4538 15.2184L12.8662 13.3189C11.8429 14.716 10.2787 15.5154 8.57474 15.5154C6.16541 15.5154 4.1236 13.8819 3.4529 11.6384H17.1429V10.0334L17.1417 10.0359ZM3.45166 8.43093C4.12236 6.18495 6.16417 4.5515 8.5735 4.5515C10.9828 4.5515 13.0246 6.18495 13.6953 8.43093H3.45042H3.45166Z" fill="#0032A0"/>
    <path d="M120.588 13.4451C120.588 14.6826 120.24 15.8025 119.529 16.6972C118.452 18.0745 116.531 18.937 113.735 18.937C110.447 18.937 108.087 17.8344 106.469 16.2183L108.473 13.4439C109.679 14.7012 111.553 15.7542 113.913 15.7542C115.918 15.7542 116.892 14.8063 116.892 13.8287C116.892 12.5455 115.404 12.1112 113.426 11.6471C110.628 11.0049 107.034 10.2352 107.034 6.41142C107.034 3.56156 109.499 1.25122 113.527 1.25122C115.758 1.25122 117.249 1.44055 119.394 2.80052C119.867 3.09751 120.368 3.4539 120.917 3.87711L118.54 5.98574L118.175 6.30995C116.789 5.02671 114.94 4.43768 113.271 4.43768C111.602 4.43768 110.757 5.1554 110.757 6.18249C110.757 7.33828 112.194 7.6959 114.169 8.15995C115.502 8.46313 117.004 8.81333 118.221 9.4927C119.583 10.2574 120.587 11.438 120.587 13.4451H120.588Z" fill="#0032A0"/>
    <path d="M33.5344 1.51001V18.6327H30.0188L21.854 7.13426V18.6327H18.2109V1.51001H21.9555L29.8901 12.6001V1.51001H33.5344Z" fill="#0032A0"/>
    <path d="M62.4681 12.1126C64.3144 11.6745 66.2138 10.0584 66.2138 7.02785C66.2138 3.84511 64.0347 1.50879 60.4646 1.50879H52.457V18.6315H56.1001V12.4974H58.7693L62.1327 18.6315H66.319L62.4681 12.1113V12.1126ZM59.9251 9.36417H56.1013V4.64203H59.9251C61.389 4.64203 62.4916 5.56641 62.4916 7.00434C62.4916 8.44226 61.389 9.36417 59.9251 9.36417Z" fill="#0032A0"/>
    <path d="M83.0822 13.5764V15.7295C81.3374 17.681 78.8996 18.9643 75.7923 18.9643C70.7868 18.9643 66.6797 15.4721 66.6797 10.0818C66.6797 4.69141 70.7868 1.229 75.7923 1.229C79.3339 1.229 81.5688 2.9466 82.878 4.97479C82.4932 6.12687 81.5688 7.03392 80.4068 7.40145L79.8462 6.61937C79.053 5.41161 77.5879 4.46124 75.7911 4.46124C72.6838 4.46124 70.4267 6.85077 70.4267 10.083C70.4267 13.3153 72.6851 15.7073 75.7911 15.7073C77.3577 15.7073 78.7437 15.065 79.4874 14.398V12.3179H74.9199V9.18462H79.2634C81.3634 9.18462 83.076 10.8936 83.076 12.9948V13.5776H83.0822V13.5764Z" fill="#0032A0"/>
    <path d="M88.3032 9.1897V18.6327H84.6602V12.7226C84.7938 10.8009 86.3641 9.26642 88.3032 9.1897Z" fill="#0032A0"/>
    <path d="M88.3032 1.50879V7.5711C86.3666 7.49809 84.7938 5.96364 84.6602 4.03815V1.50879H88.3032Z" fill="#0032A0"/>
    <path d="M51.4776 10.0359C51.4776 9.48772 51.4281 8.95067 51.3291 8.43093C50.5879 4.40301 47.0958 1.34277 42.9107 1.34277C38.1885 1.34277 34.3438 5.24324 34.3438 10.0359C34.3438 14.8286 38.1885 18.7253 42.9107 18.7253C45.6059 18.7253 48.1761 17.4161 49.7885 15.2184L47.2009 13.3189C46.1776 14.716 44.6134 15.5154 42.9094 15.5154C40.5001 15.5154 38.4583 13.8819 37.7876 11.6384H51.4776V10.0334V10.0359ZM37.7876 8.43093C38.4583 6.18495 40.5001 4.5515 42.9094 4.5515C45.3188 4.5515 47.3606 6.18495 48.0313 8.43093H37.7864H37.7876Z" fill="#0032A0"/>
    <path d="M106.471 10.0359C106.471 9.66222 106.448 9.2947 106.398 8.93584C106.381 8.76383 106.355 8.59801 106.323 8.43095C106.224 7.8939 106.078 7.37787 105.884 6.88165C104.642 3.64322 101.532 1.34155 97.9029 1.34155C93.1807 1.34155 89.3359 5.24202 89.3359 10.0347C89.3359 14.8274 93.1807 18.7241 97.9029 18.7241C100.598 18.7241 103.168 17.4149 104.782 15.2172L102.194 13.3177C101.171 14.7148 99.6068 15.5142 97.9029 15.5142C95.4935 15.5142 93.4517 13.8807 92.781 11.6372H106.471V10.0322V10.0359ZM92.781 8.43095C93.4517 6.18497 95.4935 4.55152 97.9029 4.55152C100.312 4.55152 102.354 6.18497 103.025 8.43095H92.7798H92.781Z" fill="#0032A0"/>
    <path d="M147.996 14.0712C147.996 14.5625 147.928 15.0315 147.793 15.4732C147.379 16.8592 146.332 17.9741 144.802 18.6634C143.699 19.1646 142.341 19.4418 140.788 19.4418C138.535 19.4418 136.675 18.8676 135.285 17.9964C136.107 17.1302 136.619 16.0697 136.784 14.909C137.943 15.6366 139.355 16.0437 140.65 16.0437C142.868 16.0437 144.101 15.0834 144.101 13.6839C144.101 12.2039 142.981 11.5196 140.428 11.5196C139.663 11.5196 138.428 11.5196 138.155 11.548V8.14749C138.482 8.17595 139.715 8.17595 140.428 8.17595C142.456 8.17595 143.803 7.51762 143.803 6.14528C143.803 4.69374 142.32 3.9525 140.401 3.9525C138.981 3.9525 137.686 4.38809 136.563 5.18996C136.503 3.99705 136.083 2.95263 135.371 2.1025C136.757 1.1608 138.563 0.554443 140.813 0.554443C142.429 0.554443 143.81 0.827919 144.903 1.3328C146.375 2.01217 147.327 3.10979 147.62 4.52297C147.691 4.83852 147.724 5.17016 147.724 5.51541C147.724 5.69608 147.713 5.87304 147.687 6.04504C147.485 7.52999 146.431 8.63133 145.137 9.23521C144.687 9.44682 144.205 9.59778 143.722 9.68193C144.583 9.76855 145.56 10.1262 146.362 10.7573C147.272 11.4676 147.959 12.5318 147.995 13.9475C147.998 13.9871 147.998 14.0279 147.998 14.0675L147.996 14.0712Z" fill="url(#paint0_linear_7910_21427)"/>
    <path d="M135.914 14.0714C135.914 14.132 135.914 14.1914 135.906 14.2496C135.866 15.497 135.376 16.5933 134.515 17.4447C134.098 17.8642 133.597 18.2231 133.019 18.5201C131.863 19.1103 130.401 19.442 128.704 19.442C125.332 19.442 122.839 18.155 121.492 16.5104L123.523 13.96C124.781 15.2779 126.784 16.0452 128.568 16.0452C130.789 16.0452 132.022 15.0849 132.022 13.6853C132.022 12.2053 130.897 11.521 128.346 11.521C127.579 11.521 126.347 11.521 126.071 11.5495V8.14893C126.4 8.17739 127.635 8.1774 128.346 8.1774C130.377 8.1774 131.719 7.51907 131.719 6.14673C131.719 4.69519 130.241 3.95395 128.32 3.95395C126.54 3.95395 124.946 4.63827 123.659 5.87449L121.741 3.46268C123.221 1.78964 125.523 0.557129 128.731 0.557129C130.564 0.557129 132.096 0.909804 133.247 1.55452C133.797 1.86265 134.262 2.23636 134.628 2.67194C135.285 3.44412 135.638 4.40562 135.638 5.51934C135.638 5.59235 135.635 5.66536 135.63 5.73589C135.593 6.42268 135.376 7.0377 135.037 7.56362C134.301 8.70703 132.981 9.44827 131.636 9.68586C133.031 9.82941 134.732 10.6758 135.499 12.2437C135.76 12.7708 135.914 13.3797 135.914 14.0714Z" fill="url(#paint1_linear_7910_21427)"/>
  </g>
  <defs>
    <linearGradient id="paint0_linear_7910_21427" x1="135.285" y1="9.99996" x2="147.996" y2="9.99996" gradientUnits="userSpaceOnUse">
      <stop stop-color="#00BCDB"/>
      <stop offset="1" stop-color="#2EE9C5"/>
    </linearGradient>
    <linearGradient id="paint1_linear_7910_21427" x1="121.492" y1="-56.8226" x2="135.914" y2="-56.8226" gradientUnits="userSpaceOnUse">
      <stop stop-color="#00BCDB"/>
      <stop offset="1" stop-color="#2EE9C5"/>
    </linearGradient>
    <clipPath id="clip0_7910_21427">
      <rect width="148" height="19.0569" fill="white" transform="translate(0 0.47168)"/>
    </clipPath>
  </defs>
</svg>
